<?xml version="1.0" standalone="no"?>
<!DOCTYPE svg PUBLIC "-//W3C//DTD SVG 1.1//EN" "http://www.w3.org/Graphics/SVG/1.1/DTD/svg11.dtd">
<svg version="1.1" xmlns="http://www.w3.org/2000/svg" viewBox="0 0 177.1287136824485 120.90935915799673" width="354.257427364897" height="241.81871831599346"><!-- svg-source:excalidraw --><metadata></metadata><defs><style class="style-fonts">
      </style></defs><g transform="translate(92.45797110123704 109.66436813315522) rotate(0 -2.830967450363005 -49.728806041704956)" stroke="none"><path fill="#1e1e1e" d="M 0,1.92 Q 0,1.92 -1.63,1.94 -3.26,1.97 -5.60,1.88 -7.93,1.79 -9.92,1.76 -11.91,1.73 -13.94,1.70 -15.96,1.67 -17.98,1.64 -20.01,1.62 -21.91,1.63 -23.81,1.64 -25.63,1.67 -27.45,1.69 -29.18,1.63 -30.92,1.57 -32.61,1.38 -34.31,1.19 -35.89,0.87 -37.46,0.56 -39.41,-0.08 -41.36,-0.73 -42.74,-1.15 -44.12,-1.58 -45.29,-1.94 -46.46,-2.30 -47.54,-2.62 -48.62,-2.94 -49.71,-3.32 -50.81,-3.70 -51.89,-4.11 -52.97,-4.51 -54.10,-4.99 -55.23,-5.46 -56.37,-5.93 -57.52,-6.41 -58.60,-6.85 -59.69,-7.29 -60.81,-7.79 -61.92,-8.30 -63.03,-8.86 -64.13,-9.42 -65.21,-9.99 -66.29,-10.57 -67.36,-11.28 -68.44,-12.00 -69.37,-12.75 -70.30,-13.50 -71.75,-14.76 -73.21,-16.01 -74.82,-19.00 -76.42,-21.99 -77.11,-23.35 -77.79,-24.72 -78.32,-25.76 -78.84,-26.80 -79.60,-28.42 -80.35,-30.03 -80.93,-31.53 -81.51,-33.03 -81.95,-34.64 -82.39,-36.25 -82.62,-38.15 -82.86,-40.05 -83.07,-42.07 -83.28,-44.09 -83.34,-45.92 -83.40,-47.74 -83.41,-49.67 -83.42,-51.60 -83.39,-52.88 -83.36,-54.15 -83.32,-55.56 -83.27,-56.97 -83.25,-58.28 -83.23,-59.59 -83.23,-60.74 -83.23,-61.89 -83.10,-63.41 -82.98,-64.92 -82.69,-66.31 -82.40,-67.71 -81.93,-68.99 -81.45,-70.28 -80.89,-71.40 -80.34,-72.53 -79.77,-73.52 -79.20,-74.51 -78.63,-75.43 -78.06,-76.36 -77.22,-77.39 -76.38,-78.42 -75.37,-79.39 -74.37,-80.37 -73.35,-81.27 -72.33,-82.17 -71.13,-83.10 -69.93,-84.03 -68.58,-84.95 -67.22,-85.87 -65.85,-86.76 -64.47,-87.65 -63.18,-88.46 -61.88,-89.27 -60.72,-89.96 -59.55,-90.65 -58.47,-91.23 -57.38,-91.80 -56.31,-92.28 -55.24,-92.76 -54.23,-93.15 -53.21,-93.55 -52.12,-93.90 -51.03,-94.25 -49.99,-94.58 -48.96,-94.91 -47.92,-95.24 -46.89,-95.56 -45.85,-95.89 -44.82,-96.21 -43.78,-96.53 -42.75,-96.85 -41.60,-97.17 -40.44,-97.49 -39.27,-97.80 -38.11,-98.12 -36.92,-98.43 -35.74,-98.75 -34.54,-99.05 -33.34,-99.36 -32.26,-99.66 -31.19,-99.96 -30.14,-100.26 -29.10,-100.56 -28.06,-100.86 -27.01,-101.16 -25.87,-101.40 -24.72,-101.65 -23.63,-101.83 -22.53,-102.02 -20.39,-102.27 -18.25,-102.51 -16.33,-102.58 -14.40,-102.65 -12.80,-102.69 -11.19,-102.73 -9.98,-102.77 -8.76,-102.81 -7.66,-102.85 -6.56,-102.88 -5.48,-102.91 -4.40,-102.94 -3.33,-102.96 -2.25,-102.99 -1.18,-103.01 -0.10,-103.03 0.96,-103.05 2.04,-103.06 3.53,-103.06 5.02,-103.06 6.20,-103.07 7.37,-103.09 8.80,-102.88 10.23,-102.68 11.47,-102.47 12.71,-102.25 14.17,-101.98 15.63,-101.70 17.10,-101.43 18.57,-101.15 20.18,-100.84 21.80,-100.54 23.46,-100.22 25.13,-99.90 26.64,-99.60 28.15,-99.29 29.69,-98.92 31.23,-98.55 32.80,-98.24 34.37,-97.93 35.73,-97.67 37.10,-97.41 38.73,-97.03 40.36,-96.66 41.79,-96.29 43.22,-95.92 44.39,-95.62 45.57,-95.33 46.62,-95.07 47.68,-94.82 49.04,-94.29 50.40,-93.75 51.53,-93.23 52.67,-92.70 53.77,-92.14 54.87,-91.58 56.04,-90.99 57.21,-90.40 58.13,-89.74 59.04,-89.08 60.47,-88.09 61.90,-87.10 63.09,-86.29 64.28,-85.48 65.47,-84.52 66.67,-83.56 67.73,-82.70 68.79,-81.83 70.02,-80.75 71.25,-79.67 72.13,-78.70 73.02,-77.73 73.79,-76.62 74.55,-75.51 75.09,-74.46 75.62,-73.42 76.03,-72.23 76.44,-71.04 76.89,-69.18 77.34,-67.33 77.62,-65.62 77.90,-63.91 78.01,-62.31 78.12,-60.72 78.16,-59.43 78.19,-58.14 78.22,-57.01 78.24,-55.89 78.26,-54.67 78.27,-53.46 78.27,-51.88 78.27,-50.31 78.27,-49.24 78.28,-48.16 78.03,-46.68 77.79,-45.21 77.31,-43.84 76.84,-42.47 76.22,-41.40 75.60,-40.32 74.99,-39.41 74.39,-38.50 73.75,-37.56 73.12,-36.63 72.40,-35.67 71.69,-34.72 71.00,-33.71 70.32,-32.70 69.43,-31.56 68.54,-30.43 67.47,-29.03 66.40,-27.64 65.65,-26.51 64.90,-25.38 63.84,-24.07 62.79,-22.76 61.78,-21.71 60.78,-20.66 59.89,-19.88 58.99,-19.09 57.95,-18.29 56.90,-17.50 56.00,-16.79 55.10,-16.09 54.13,-15.27 53.15,-14.46 52.42,-13.65 51.68,-12.85 50.58,-11.77 49.48,-10.69 48.27,-9.89 47.06,-9.08 45.92,-8.49 44.77,-7.89 43.63,-7.48 42.49,-7.07 41.26,-6.76 40.03,-6.45 38.65,-6.12 37.26,-5.80 36.18,-5.39 35.09,-4.98 33.70,-4.42 32.30,-3.86 30.91,-3.26 29.51,-2.67 27.83,-2.10 26.16,-1.54 24.60,-1.17 23.04,-0.81 21.76,-0.60 20.48,-0.40 19.12,-0.16 17.77,0.08 16.56,0.47 15.35,0.86 13.64,1.25 11.92,1.64 10.67,1.85 9.43,2.05 8.21,2.22 7.00,2.39 5.91,2.58 4.82,2.76 3.55,2.96 2.29,3.16 0.99,3.35 -0.30,3.53 -1.36,3.65 -2.42,3.77 -2.16,3.65 -1.89,3.52 -2.31,3.48 -2.72,3.44 -3.12,3.30 -3.51,3.16 -3.86,2.93 -4.21,2.70 -4.50,2.39 -4.78,2.09 -4.99,1.72 -5.19,1.36 -5.30,0.95 -5.41,0.55 -5.42,0.13 -5.43,-0.28 -5.34,-0.69 -5.25,-1.10 -5.06,-1.47 -4.88,-1.85 -4.61,-2.17 -4.34,-2.49 -4.00,-2.73 -3.66,-2.98 -3.27,-3.14 -2.88,-3.29 -2.47,-3.35 -2.06,-3.41 -1.50,-3.34 -0.95,-3.26 -0.45,-3.01 0.04,-2.76 0.44,-2.36 0.84,-1.97 1.09,-1.46 1.34,-0.96 1.41,-0.40 1.49,0.14 1.38,0.70 1.27,1.25 1.00,1.74 0.72,2.22 0.30,2.60 -0.11,2.97 -0.62,3.20 -1.14,3.42 -1.70,3.46 -2.26,3.51 -2.80,3.37 -3.35,3.24 -3.82,2.93 -4.29,2.63 -4.65,2.19 -5.00,1.75 -5.19,1.23 -5.38,0.70 -5.40,0.14 -5.41,-0.41 -5.25,-0.95 -5.08,-1.49 -4.76,-1.94 -4.43,-2.40 -3.97,-2.73 -3.51,-3.05 -2.98,-3.22 -2.44,-3.38 -1.88,-3.37 -1.32,-3.35 -0.79,-3.16 -0.26,-2.96 0.17,-2.61 0.60,-2.26 0.90,-1.79 1.21,-1.31 1.34,-0.77 1.48,-0.22 1.43,0.33 1.39,0.89 1.16,1.40 0.94,1.92 0.56,2.34 0.19,2.76 -0.29,3.03 -0.78,3.31 -1.33,3.41 -1.88,3.52 -1.89,3.52 -1.89,3.52 -2.31,3.48 -2.72,3.44 -3.12,3.30 -3.51,3.16 -3.86,2.93 -4.21,2.70 -4.50,2.39 -4.78,2.09 -4.99,1.72 -5.19,1.36 -5.30,0.95 -5.41,0.55 -5.42,0.13 -5.43,-0.28 -5.34,-0.69 -5.25,-1.10 -5.06,-1.47 -4.88,-1.85 -4.61,-2.17 -4.34,-2.49 -4.00,-2.73 -3.66,-2.98 -3.27,-3.14 -2.89,-3.29 -2.47,-3.35 -2.06,-3.41 -2.74,-3.42 -3.43,-3.42 -2.10,-3.57 -0.77,-3.72 0.74,-3.85 2.26,-3.99 3.50,-4.24 4.74,-4.50 5.94,-4.69 7.14,-4.88 8.33,-5.04 9.52,-5.21 10.94,-5.46 12.36,-5.71 13.86,-6.24 15.37,-6.78 16.66,-6.91 17.94,-7.03 19.19,-7.32 20.44,-7.60 21.60,-7.80 22.76,-8.01 24.04,-8.39 25.32,-8.77 26.64,-9.33 27.97,-9.89 29.17,-10.47 30.38,-11.05 31.85,-11.60 33.33,-12.15 34.56,-12.57 35.78,-13.00 36.86,-13.24 37.94,-13.47 39.02,-13.72 40.10,-13.97 41.42,-14.44 42.75,-14.92 43.79,-15.49 44.83,-16.06 45.71,-16.88 46.58,-17.70 47.54,-18.71 48.50,-19.73 49.53,-20.60 50.57,-21.48 51.76,-22.41 52.95,-23.34 54.09,-24.22 55.23,-25.11 56.27,-26.10 57.31,-27.10 58.14,-28.11 58.96,-29.13 59.96,-30.66 60.95,-32.19 61.79,-33.37 62.63,-34.55 63.81,-36.16 64.99,-37.78 65.76,-38.93 66.53,-40.08 67.21,-41.00 67.89,-41.92 68.55,-42.87 69.22,-43.83 69.86,-44.85 70.49,-45.88 70.77,-47.02 71.06,-48.17 71.06,-49.24 71.06,-50.31 71.06,-51.88 71.06,-53.46 71.08,-54.97 71.10,-56.48 71.12,-57.62 71.14,-58.76 71.12,-60.14 71.10,-61.53 70.91,-62.89 70.71,-64.26 70.40,-65.77 70.08,-67.28 69.63,-68.60 69.18,-69.91 68.61,-71.14 68.05,-72.36 67.16,-73.41 66.27,-74.46 65.27,-75.34 64.27,-76.22 63.08,-77.22 61.88,-78.21 60.72,-79.06 59.56,-79.90 58.35,-80.82 57.14,-81.74 56.08,-82.44 55.02,-83.13 54.12,-83.83 53.22,-84.53 51.97,-85.21 50.72,-85.89 49.67,-86.40 48.61,-86.91 47.30,-87.51 46.00,-88.10 44.88,-88.40 43.76,-88.69 42.64,-89.00 41.52,-89.30 40.09,-89.67 38.66,-90.04 37.23,-90.35 35.80,-90.66 34.46,-90.92 33.12,-91.19 31.80,-91.45 30.47,-91.71 29.41,-92.04 28.35,-92.37 26.80,-92.66 25.25,-92.95 23.79,-93.25 22.34,-93.54 20.62,-93.82 18.91,-94.10 17.38,-94.37 15.86,-94.65 14.35,-94.91 12.83,-95.18 11.51,-95.43 10.19,-95.68 8.78,-95.96 7.37,-96.23 6.19,-96.24 5.02,-96.26 3.53,-96.26 2.04,-96.25 0.96,-96.27 -0.10,-96.29 -1.18,-96.31 -2.25,-96.33 -3.33,-96.36 -4.40,-96.38 -5.48,-96.41 -6.56,-96.44 -7.66,-96.47 -8.76,-96.51 -9.97,-96.54 -11.17,-96.58 -12.75,-96.61 -14.33,-96.64 -16.10,-96.63 -17.88,-96.62 -19.75,-96.44 -21.61,-96.27 -23.54,-95.94 -25.46,-95.62 -26.51,-95.34 -27.55,-95.05 -28.62,-94.76 -29.69,-94.47 -30.81,-94.17 -31.92,-93.87 -33.09,-93.57 -34.25,-93.26 -35.43,-92.94 -36.60,-92.61 -37.76,-92.29 -38.93,-91.97 -40.02,-91.67 -41.11,-91.37 -42.14,-91.07 -43.18,-90.77 -44.22,-90.47 -45.26,-90.17 -46.30,-89.87 -47.34,-89.57 -49.37,-88.99 -51.39,-88.41 -53.20,-87.78 -55.02,-87.14 -56.00,-86.67 -56.98,-86.20 -58.06,-85.60 -59.14,-84.99 -60.35,-84.20 -61.55,-83.41 -62.82,-82.48 -64.08,-81.55 -65.27,-80.63 -66.46,-79.71 -67.49,-78.84 -68.52,-77.97 -69.44,-77.11 -70.36,-76.26 -71.15,-75.49 -71.93,-74.71 -73.10,-73.15 -74.26,-71.59 -75.21,-69.92 -76.17,-68.25 -76.76,-66.42 -77.35,-64.59 -77.39,-63.24 -77.43,-61.89 -77.43,-60.74 -77.43,-59.59 -77.40,-58.28 -77.38,-56.97 -77.33,-55.56 -77.29,-54.15 -77.26,-52.88 -77.23,-51.61 -77.23,-49.71 -77.23,-47.81 -77.22,-46.14 -77.21,-44.46 -77.04,-42.62 -76.87,-40.78 -76.73,-39.13 -76.59,-37.48 -76.30,-36.03 -76.01,-34.59 -75.68,-33.37 -75.34,-32.15 -74.77,-30.57 -74.21,-28.99 -73.77,-27.99 -73.34,-27.00 -72.67,-25.72 -72.00,-24.43 -70.55,-22.21 -69.09,-19.99 -67.92,-18.86 -66.75,-17.72 -65.23,-16.50 -63.71,-15.28 -62.69,-14.71 -61.67,-14.14 -60.66,-13.59 -59.64,-13.05 -58.65,-12.54 -57.65,-12.04 -56.58,-11.55 -55.50,-11.07 -54.34,-10.54 -53.18,-10.02 -52.13,-9.51 -51.08,-9.00 -50.08,-8.53 -49.08,-8.06 -48.09,-7.61 -47.11,-7.16 -46.04,-6.72 -44.97,-6.27 -43.89,-5.79 -42.80,-5.31 -41.53,-4.80 -40.26,-4.28 -38.42,-3.76 -36.58,-3.24 -35.19,-2.86 -33.79,-2.49 -32.25,-2.23 -30.71,-1.97 -29.08,-1.83 -27.45,-1.69 -25.63,-1.67 -23.81,-1.64 -21.91,-1.63 -20.01,-1.62 -17.98,-1.64 -15.96,-1.67 -13.94,-1.70 -11.91,-1.73 -9.92,-1.76 -7.93,-1.79 -5.60,-1.88 -3.26,-1.97 -1.63,-1.94 0,-1.92 0.23,-1.89 0.46,-1.86 0.67,-1.78 0.89,-1.70 1.08,-1.57 1.27,-1.43 1.42,-1.26 1.58,-1.09 1.69,-0.88 1.79,-0.68 1.85,-0.45 1.90,-0.23 1.90,0.00 1.90,0.23 1.85,0.45 1.79,0.68 1.69,0.88 1.58,1.09 1.42,1.26 1.27,1.43 1.08,1.57 0.89,1.70 0.67,1.78 0.46,1.86 0.22,1.89 -0.00,1.92 -0.00,1.92 L 0,1.92 Z"></path></g><g transform="translate(33.25961024208755 40.836705846621044) rotate(0 1.580051175712697 0.6058227305838955)" stroke="none"><path fill="#1e1e1e" d="M 1.67,-1.82 Q 1.67,-1.82 2.21,-1.39 2.75,-0.97 2.90,0.10 3.05,1.18 2.27,2.05 1.49,2.92 1.28,3.37 1.06,3.81 0.69,3.98 0.31,4.14 -0.08,4.21 -0.49,4.28 -0.90,4.25 -1.31,4.22 -1.70,4.09 -2.09,3.96 -2.44,3.75 -2.78,3.53 -3.07,3.24 -3.36,2.94 -3.56,2.59 -3.77,2.23 -3.89,1.84 -4.01,1.45 -4.02,1.04 -4.04,0.63 -3.97,0.22 -3.89,-0.17 -3.71,-0.54 -3.54,-0.91 -3.28,-1.23 -3.02,-1.55 -2.70,-1.80 -2.37,-2.05 -2.48,-1.98 -2.59,-1.91 -2.10,-2.14 -1.60,-2.38 -1.05,-2.45 -0.51,-2.51 0.02,-2.40 0.56,-2.29 1.04,-2.01 1.51,-1.73 1.88,-1.32 2.24,-0.90 2.45,-0.39 2.66,0.11 2.69,0.66 2.73,1.21 2.59,1.74 2.45,2.27 2.14,2.73 1.84,3.19 1.41,3.53 0.97,3.87 0.45,4.05 -0.06,4.23 -0.61,4.24 -1.16,4.24 -1.68,4.07 -2.21,3.90 -2.65,3.58 -3.09,3.25 -3.41,2.80 -3.72,2.34 -3.88,1.81 -4.03,1.28 -4.01,0.73 -3.98,0.18 -3.78,-0.32 -3.59,-0.83 -3.24,-1.26 -2.88,-1.68 -2.41,-1.97 -1.95,-2.26 -1.41,-2.39 -0.87,-2.51 -0.32,-2.46 0.21,-2.40 0.72,-2.18 1.22,-1.95 1.62,-1.58 2.03,-1.20 2.29,-0.72 2.55,-0.24 2.65,0.30 2.74,0.84 2.66,1.38 2.58,1.93 2.33,2.42 2.07,2.91 1.57,3.36 1.06,3.81 0.69,3.98 0.31,4.14 -0.08,4.21 -0.49,4.28 -0.90,4.25 -1.31,4.22 -1.70,4.09 -2.09,3.96 -2.43,3.75 -2.78,3.53 -3.07,3.24 -3.36,2.94 -3.56,2.59 -3.77,2.23 -3.89,1.84 -4.01,1.45 -4.02,1.04 -4.04,0.63 -3.97,0.23 -3.89,-0.17 -3.71,-0.54 -3.54,-0.91 -3.28,-1.23 -3.03,-1.55 -2.70,-1.80 -2.37,-2.05 -2.37,-2.30 -2.37,-2.56 -1.25,-3.12 -0.13,-3.69 0.94,-3.90 2.03,-4.12 3.34,-4.06 4.66,-3.99 5.84,-3.42 7.02,-2.85 7.41,-1.01 7.81,0.81 7.00,1.65 6.19,2.49 5.18,3.33 4.18,4.16 2.62,4.10 1.07,4.04 0.17,3.43 -0.72,2.83 -1.20,2.32 -1.67,1.82 -1.87,1.59 -2.06,1.37 -2.19,1.10 -2.33,0.83 -2.40,0.54 -2.46,0.25 -2.46,-0.04 -2.45,-0.34 -2.37,-0.63 -2.30,-0.92 -2.15,-1.18 -2.01,-1.44 -1.81,-1.66 -1.61,-1.88 -1.36,-2.05 -1.11,-2.21 -0.83,-2.31 -0.55,-2.41 -0.25,-2.44 0.04,-2.47 0.34,-2.43 0.63,-2.39 0.91,-2.28 1.19,-2.17 1.43,-2.00 1.67,-1.82 1.67,-1.82 L 1.67,-1.82 Z"></path></g><g transform="translate(68.01767460643077 39.46787394724652) rotate(0 2.7884219194181696 -0.06713170798320789)" stroke="none"><path fill="#1e1e1e" d="M 1.68,-1.74 Q 1.68,-1.74 2.14,-1.36 2.60,-0.99 2.91,0.03 3.23,1.06 2.93,-0.53 2.64,-2.12 3.60,-2.38 4.56,-2.63 4.98,-2.68 5.40,-2.72 5.82,-2.66 6.23,-2.60 6.63,-2.45 7.02,-2.29 7.36,-2.05 7.70,-1.80 7.98,-1.48 8.25,-1.16 8.44,-0.78 8.63,-0.41 8.73,0.00 8.82,0.41 8.82,0.83 8.81,1.25 8.70,1.66 8.59,2.07 8.39,2.44 8.19,2.81 7.90,3.12 7.62,3.43 7.27,3.66 6.92,3.90 6.52,4.04 6.12,4.18 3.96,3.88 1.79,3.58 1.29,3.42 0.78,3.26 0.35,2.94 -0.07,2.63 -0.37,2.19 -0.68,1.76 -0.83,1.25 -0.98,0.74 -0.96,0.21 -0.94,-0.31 -0.76,-0.81 -0.57,-1.31 -0.23,-1.72 0.09,-2.13 0.54,-2.41 0.99,-2.70 1.51,-2.82 2.03,-2.94 2.56,-2.89 3.09,-2.85 3.57,-2.63 4.06,-2.42 4.45,-2.06 4.85,-1.70 5.10,-1.24 5.36,-0.77 5.46,-0.25 5.55,0.26 5.48,0.79 5.40,1.32 5.16,1.79 4.92,2.27 4.54,2.64 4.16,3.01 3.68,3.24 3.20,3.47 2.68,3.54 2.15,3.61 1.63,3.50 1.11,3.40 0.65,3.13 0.18,2.87 -0.16,2.47 -0.51,2.07 -0.71,1.58 -0.92,1.09 -0.96,0.56 -1.00,0.03 -0.86,-0.48 -0.73,-0.99 -0.44,-1.44 -0.15,-1.88 0.26,-2.21 0.68,-2.54 1.18,-2.72 1.68,-2.90 2.21,-2.91 2.74,-2.92 2.74,-2.92 2.74,-2.92 3.65,-2.77 4.56,-2.63 4.98,-2.68 5.40,-2.72 5.82,-2.66 6.23,-2.60 6.63,-2.45 7.02,-2.29 7.36,-2.05 7.70,-1.80 7.98,-1.48 8.25,-1.16 8.44,-0.78 8.63,-0.41 8.73,-0.00 8.82,0.41 8.82,0.83 8.81,1.25 8.70,1.66 8.59,2.07 8.39,2.44 8.19,2.81 7.90,3.12 7.62,3.43 7.27,3.66 6.92,3.90 6.52,4.04 6.12,4.18 5.49,4.37 4.86,4.55 3.32,4.54 1.78,4.54 0.53,3.82 -0.71,3.09 -1.25,1.62 -1.79,0.14 -1.41,-1.06 -1.04,-2.27 -0.25,-3.19 0.52,-4.10 1.69,-4.43 2.86,-4.77 3.99,-4.69 5.12,-4.62 6.37,-3.63 7.62,-2.63 7.56,-1.04 7.50,0.55 6.55,1.49 5.60,2.43 4.78,3.12 3.96,3.81 2.54,3.87 1.12,3.94 0.11,3.28 -0.90,2.63 -1.29,2.18 -1.68,1.74 -1.87,1.51 -2.05,1.28 -2.17,1.02 -2.30,0.75 -2.36,0.47 -2.41,0.18 -2.40,-0.10 -2.39,-0.39 -2.30,-0.67 -2.22,-0.96 -2.07,-1.21 -1.93,-1.46 -1.72,-1.67 -1.52,-1.88 -1.27,-2.03 -1.02,-2.19 -0.75,-2.28 -0.47,-2.37 -0.18,-2.39 0.10,-2.42 0.39,-2.37 0.68,-2.32 0.95,-2.20 1.22,-2.09 1.45,-1.91 1.68,-1.74 1.68,-1.74 L 1.68,-1.74 Z"></path></g><g transform="translate(51.51616009617646 57.609808690144746) rotate(0 -8.321057072509348 3.1961242435140775)" stroke="none"><path fill="#1e1e1e" d="M 2.14,1.24 Q 2.14,1.24 1.93,1.71 1.71,2.18 1.05,3.27 0.39,4.37 -0.50,5.17 -1.41,5.98 -2.43,6.65 -3.45,7.32 -4.53,7.88 -5.62,8.43 -6.67,8.82 -7.72,9.22 -8.87,9.46 -10.02,9.71 -11.12,9.77 -12.22,9.82 -13.59,9.53 -14.95,9.24 -15.90,8.26 -16.85,7.28 -17.64,6.75 -18.42,6.21 -18.84,5.82 -19.26,5.44 -19.54,4.93 -19.82,4.43 -19.92,3.87 -20.02,3.30 -19.93,2.73 -19.85,2.17 -19.59,1.66 -19.33,1.15 -18.92,0.75 -18.51,0.34 -17.99,0.10 -17.47,-0.14 -16.90,-0.21 -16.33,-0.28 -15.77,-0.17 -15.21,-0.05 -14.71,0.22 -14.22,0.51 -13.84,0.95 -13.46,1.38 -13.24,1.91 -13.02,2.44 -12.98,3.01 -12.94,3.58 -13.09,4.14 -13.23,4.69 -13.55,5.17 -13.86,5.65 -14.32,6.00 -14.77,6.36 -15.31,6.55 -15.85,6.74 -16.42,6.75 -17.00,6.76 -17.54,6.58 -18.09,6.41 -18.55,6.07 -19.01,5.72 -19.34,5.25 -19.67,4.78 -19.83,4.23 -19.99,3.68 -19.97,3.11 -19.95,2.54 -19.74,2.00 -19.54,1.47 -19.17,1.02 -18.81,0.58 -18.32,0.28 -17.83,-0.01 -17.28,-0.15 -16.72,-0.28 -16.15,-0.22 -15.58,-0.17 -15.05,0.05 -14.53,0.29 -14.53,0.29 -14.53,0.29 -12.71,1.65 -10.90,3.01 -9.72,2.87 -8.55,2.72 -7.47,2.33 -6.39,1.95 -5.41,1.46 -4.43,0.97 -3.59,0.29 -2.74,-0.39 -2.44,-0.82 -2.14,-1.24 -1.96,-1.48 -1.78,-1.72 -1.55,-1.91 -1.32,-2.10 -1.05,-2.22 -0.78,-2.35 -0.49,-2.41 -0.19,-2.47 0.10,-2.46 0.40,-2.45 0.68,-2.36 0.97,-2.28 1.23,-2.13 1.49,-1.98 1.71,-1.77 1.92,-1.56 2.08,-1.31 2.24,-1.06 2.33,-0.77 2.43,-0.49 2.45,-0.19 2.48,0.10 2.43,0.39 2.38,0.69 2.26,0.96 2.14,1.24 2.14,1.24 L 2.14,1.24 Z"></path></g><g transform="translate(52.5534754937803 58.31059822714451) rotate(0 10.16144828649999 4.117957209240558)" stroke="none"><path fill="#1e1e1e" d="M 2.09,-1.53 Q 2.09,-1.53 2.66,-0.81 3.23,-0.10 4.15,0.67 5.07,1.46 6.12,2.23 7.17,2.99 8.17,3.74 9.18,4.48 10.36,4.68 11.54,4.88 12.90,4.57 14.26,4.26 15.31,3.91 16.35,3.57 17.00,3.50 17.64,3.44 18.09,3.08 18.54,2.72 19.08,2.52 19.63,2.32 20.20,2.31 20.78,2.29 21.33,2.47 21.88,2.64 22.35,2.97 22.82,3.31 23.15,3.78 23.49,4.25 23.66,4.81 23.82,5.36 23.81,5.93 23.79,6.51 23.59,7.05 23.39,7.59 23.03,8.04 22.66,8.49 22.17,8.80 21.69,9.11 21.13,9.25 20.57,9.39 19.99,9.34 19.42,9.29 18.89,9.06 18.36,8.83 17.93,8.44 17.50,8.06 17.22,7.55 16.93,7.05 16.83,6.48 16.72,5.91 16.80,5.34 16.88,4.77 17.14,4.25 17.40,3.74 17.80,3.33 18.21,2.92 18.73,2.67 19.25,2.41 19.82,2.34 20.40,2.26 20.96,2.37 21.53,2.48 22.03,2.77 22.53,3.05 22.92,3.49 23.30,3.92 23.53,4.45 23.75,4.98 23.80,5.55 23.84,6.13 23.70,6.69 23.56,7.25 23.25,7.73 22.94,8.22 22.94,8.22 22.94,8.22 20.39,9.40 17.85,10.58 16.61,10.93 15.37,11.27 13.88,11.54 12.38,11.80 11.23,11.76 10.07,11.71 8.99,11.48 7.91,11.26 6.90,10.69 5.89,10.12 5.08,9.40 4.27,8.67 3.38,7.90 2.48,7.12 1.53,6.07 0.57,5.03 -0.25,4.03 -1.08,3.04 -1.59,2.29 -2.09,1.53 -2.25,1.25 -2.40,0.98 -2.48,0.68 -2.57,0.38 -2.57,0.06 -2.58,-0.24 -2.52,-0.55 -2.45,-0.85 -2.31,-1.13 -2.17,-1.41 -1.97,-1.65 -1.77,-1.89 -1.52,-2.08 -1.26,-2.26 -0.97,-2.38 -0.68,-2.50 -0.37,-2.55 -0.06,-2.59 0.24,-2.56 0.55,-2.53 0.85,-2.43 1.14,-2.33 1.40,-2.16 1.67,-1.98 1.88,-1.76 2.09,-1.53 2.09,-1.53 L 2.09,-1.53 Z"></path></g><g transform="translate(30.995421481065932 40.333724069239906) rotate(0 3.9186233420198278 -1.0702847894503975)" stroke="none"><path fill="#1e1e1e" d="M 1.59,-1.77 Q 1.59,-1.77 2.06,-1.42 2.53,-1.07 1.32,-0.74 0.11,-0.41 -0.42,-1.35 -0.96,-2.28 -0.48,-3.95 -0.00,-5.61 1.13,-6.10 2.27,-6.60 3.47,-6.67 4.68,-6.75 6.04,-6.40 7.41,-6.05 8.29,-5.14 9.17,-4.24 9.88,-2.51 10.59,-0.78 10.75,-0.40 10.90,-0.02 10.96,0.38 11.02,0.79 10.98,1.19 10.94,1.60 10.80,1.99 10.67,2.37 10.44,2.72 10.22,3.06 9.92,3.34 9.62,3.62 9.26,3.82 8.90,4.02 8.50,4.12 8.11,4.23 7.70,4.24 7.29,4.25 6.89,4.16 6.49,4.07 6.12,3.89 5.75,3.71 5.44,3.45 5.13,3.18 4.89,2.85 4.65,2.52 4.77,2.71 4.90,2.91 4.64,2.42 4.39,1.93 4.30,1.39 4.22,0.84 4.31,0.30 4.40,-0.23 4.66,-0.71 4.93,-1.20 5.33,-1.57 5.73,-1.95 6.23,-2.18 6.73,-2.41 7.28,-2.46 7.82,-2.52 8.36,-2.40 8.90,-2.27 9.37,-1.99 9.84,-1.70 10.19,-1.28 10.54,-0.86 10.74,-0.35 10.94,0.16 10.97,0.71 11.00,1.26 10.85,1.78 10.70,2.31 10.38,2.77 10.07,3.22 9.63,3.55 9.19,3.88 8.67,4.05 8.15,4.23 7.60,4.22 7.05,4.22 6.53,4.04 6.01,3.86 5.57,3.52 5.14,3.19 4.83,2.73 4.52,2.27 4.38,1.74 4.24,1.21 4.27,0.66 4.30,0.11 4.51,-0.39 4.72,-0.90 5.08,-1.31 5.43,-1.73 5.91,-2.01 6.38,-2.29 6.92,-2.41 7.46,-2.52 8.00,-2.46 8.55,-2.39 9.05,-2.16 9.55,-1.93 10.07,-1.35 10.59,-0.78 10.75,-0.40 10.90,-0.02 10.96,0.38 11.02,0.78 10.98,1.19 10.94,1.60 10.80,1.99 10.67,2.37 10.44,2.72 10.22,3.06 9.92,3.34 9.62,3.62 9.26,3.82 8.90,4.02 8.50,4.12 8.11,4.23 7.70,4.24 7.29,4.25 6.89,4.16 6.49,4.07 6.12,3.89 5.75,3.71 5.44,3.45 5.13,3.18 4.89,2.85 4.65,2.52 3.72,1.04 2.79,-0.42 3.85,-0.84 4.91,-1.26 4.81,-0.19 4.71,0.88 4.28,1.96 3.84,3.04 2.53,3.47 1.22,3.89 0.21,3.26 -0.79,2.63 -1.19,2.20 -1.59,1.77 -1.78,1.55 -1.97,1.34 -2.10,1.08 -2.24,0.82 -2.30,0.54 -2.37,0.26 -2.37,-0.01 -2.36,-0.30 -2.29,-0.58 -2.22,-0.86 -2.09,-1.11 -1.95,-1.37 -1.76,-1.58 -1.57,-1.80 -1.33,-1.96 -1.09,-2.12 -0.82,-2.22 -0.55,-2.32 -0.26,-2.35 0.01,-2.38 0.30,-2.35 0.59,-2.31 0.85,-2.21 1.12,-2.10 1.36,-1.94 1.59,-1.77 1.59,-1.77 L 1.59,-1.77 Z"></path></g><g transform="translate(71.32895770285995 38.38702741746056) rotate(0 2.8722406942695216 0.2974488744871451)" stroke="none"><path fill="#1e1e1e" d="M -0.43,-2.41 Q -0.43,-2.41 0.13,-2.56 0.69,-2.71 1.76,-2.99 2.82,-3.26 3.89,-3.37 4.96,-3.48 6.09,-3.22 7.21,-2.97 7.92,-1.99 8.63,-1.01 8.75,0.07 8.87,1.16 8.57,2.18 8.27,3.21 7.35,3.90 6.42,4.59 5.28,4.80 4.14,5.01 2.68,4.62 1.22,4.23 0.50,3.03 -0.21,1.82 2.56,-1.36 5.33,-4.55 5.88,-4.46 6.42,-4.38 6.90,-4.12 7.39,-3.86 7.77,-3.46 8.15,-3.07 8.38,-2.57 8.61,-2.07 8.67,-1.52 8.73,-0.98 8.62,-0.44 8.50,0.09 8.22,0.56 7.94,1.03 7.52,1.39 7.10,1.74 6.59,1.95 6.08,2.15 5.53,2.18 4.98,2.22 4.45,2.07 3.92,1.92 3.47,1.62 3.01,1.31 2.68,0.87 2.34,0.44 2.17,-0.07 1.99,-0.59 1.99,-1.14 1.99,-1.69 2.16,-2.22 2.34,-2.74 2.67,-3.18 3.00,-3.61 3.45,-3.92 3.91,-4.23 4.44,-4.38 4.97,-4.53 5.52,-4.50 6.06,-4.47 6.58,-4.27 7.09,-4.07 7.51,-3.71 7.93,-3.36 8.21,-2.89 8.50,-2.42 8.61,-1.88 8.73,-1.34 8.68,-0.80 8.62,-0.25 8.39,0.24 8.16,0.74 7.78,1.14 7.40,1.54 6.92,1.80 6.43,2.05 5.89,2.14 5.35,2.23 5.35,2.23 5.35,2.23 5.73,1.16 6.12,0.08 5.15,-0.63 4.18,-1.36 3.45,-0.53 2.71,0.29 3.31,1.30 3.91,2.30 2.76,2.30 1.60,2.30 1.01,2.35 0.43,2.41 0.14,2.42 -0.15,2.44 -0.44,2.39 -0.73,2.33 -1.00,2.21 -1.27,2.09 -1.50,1.91 -1.73,1.72 -1.92,1.49 -2.10,1.26 -2.22,0.99 -2.34,0.72 -2.39,0.43 -2.44,0.14 -2.42,-0.15 -2.41,-0.44 -2.32,-0.73 -2.23,-1.01 -2.07,-1.26 -1.92,-1.51 -1.71,-1.72 -1.50,-1.93 -1.25,-2.08 -0.99,-2.23 -0.71,-2.32 -0.43,-2.41 -0.43,-2.41 L -0.43,-2.41 Z"></path></g><g transform="translate(75.97659636672643 34.684851247499864) rotate(0 -2.355688854199798 0.2536282813712205)" stroke="none"><path fill="#1e1e1e" d="M 0.15,2.39 Q 0.15,2.39 -1.12,2.50 -2.39,2.60 -1.95,2.64 -1.50,2.67 -1.81,2.68 -2.12,2.69 -2.43,2.63 -2.73,2.57 -3.01,2.43 -3.29,2.30 -3.53,2.10 -3.77,1.90 -3.95,1.66 -4.14,1.41 -4.26,1.12 -4.38,0.84 -4.43,0.53 -4.48,0.22 -4.45,-0.07 -4.43,-0.38 -4.33,-0.68 -4.23,-0.97 -4.06,-1.23 -3.89,-1.49 -3.67,-1.71 -3.44,-1.92 -3.18,-2.08 -2.91,-2.23 -2.61,-2.32 -2.31,-2.40 -1.78,-2.37 -1.26,-2.35 -0.88,-2.18 -0.50,-2.01 -0.19,-1.73 0.11,-1.45 0.31,-1.09 0.51,-0.72 0.58,-0.31 0.65,0.09 0.59,0.50 0.53,0.91 0.34,1.28 0.16,1.65 -0.13,1.94 -0.43,2.24 -0.80,2.42 -1.18,2.60 -1.59,2.65 -2.00,2.70 -2.41,2.62 -2.82,2.53 -3.18,2.33 -3.54,2.12 -3.81,1.80 -4.09,1.49 -4.25,1.11 -4.41,0.72 -4.44,0.31 -4.47,-0.10 -4.36,-0.50 -4.26,-0.90 -4.03,-1.25 -3.80,-1.60 -3.48,-1.86 -3.15,-2.11 -2.76,-2.25 -2.36,-2.39 -1.95,-2.40 -1.53,-2.40 -1.14,-2.28 -0.74,-2.15 -0.40,-1.91 -0.07,-1.66 0.16,-1.32 0.40,-0.98 0.52,-0.58 0.64,-0.18 0.62,0.23 0.60,0.64 0.46,1.03 0.31,1.42 0.04,1.74 -0.21,2.06 -0.56,2.28 -0.92,2.50 -1.32,2.60 -1.73,2.70 -1.61,2.68 -1.50,2.67 -1.81,2.68 -2.12,2.69 -2.43,2.63 -2.73,2.57 -3.01,2.43 -3.29,2.30 -3.53,2.10 -3.77,1.91 -3.95,1.66 -4.14,1.41 -4.26,1.12 -4.38,0.84 -4.43,0.53 -4.48,0.22 -4.45,-0.07 -4.43,-0.38 -4.33,-0.68 -4.23,-0.97 -4.06,-1.23 -3.89,-1.49 -3.67,-1.71 -3.44,-1.92 -3.18,-2.08 -2.91,-2.23 -2.61,-2.32 -2.31,-2.40 -2.51,-2.34 -2.71,-2.27 -1.43,-2.33 -0.15,-2.39 0.13,-2.37 0.42,-2.35 0.69,-2.27 0.97,-2.18 1.22,-2.04 1.47,-1.89 1.67,-1.68 1.88,-1.48 2.03,-1.23 2.18,-0.99 2.26,-0.71 2.35,-0.44 2.37,-0.15 2.39,0.13 2.34,0.41 2.29,0.70 2.17,0.96 2.05,1.23 1.87,1.46 1.70,1.68 1.47,1.86 1.24,2.04 0.98,2.16 0.72,2.28 0.43,2.33 0.15,2.39 0.15,2.39 L 0.15,2.39 Z"></path></g><g transform="translate(38.22716433122059 19.42374028674567) rotate(0 -14.113582165610296 12.47664239659207)" stroke="none"><path fill="#1e1e1e" d="M 0.11,2.49 Q 0.11,2.49 -0.48,2.56 -1.09,2.64 -2.21,3.03 -3.33,3.41 -4.59,3.67 -5.85,3.92 -6.91,4.08 -7.97,4.24 -9.33,4.37 -10.69,4.51 -12.04,4.64 -13.40,4.77 -14.51,4.90 -15.62,5.02 -16.70,5.16 -17.77,5.29 -18.96,5.41 -20.14,5.54 -21.41,5.65 -22.67,5.77 -23.91,5.79 -25.14,5.81 -26.27,5.83 -27.40,5.84 -26.02,4.63 -24.63,3.42 -23.99,4.43 -23.35,5.45 -22.99,6.79 -22.63,8.14 -22.39,9.30 -22.16,10.46 -21.99,11.54 -21.82,12.62 -21.67,13.92 -21.53,15.22 -21.48,16.41 -21.43,17.60 -21.42,18.74 -21.40,19.88 -23.38,24.28 -25.36,28.67 -25.97,28.63 -26.58,28.58 -27.14,28.34 -27.70,28.10 -28.15,27.70 -28.61,27.30 -28.91,26.77 -29.22,26.24 -29.33,25.64 -29.45,25.04 -29.37,24.44 -29.29,23.83 -29.03,23.29 -28.76,22.74 -28.33,22.31 -27.90,21.87 -27.36,21.60 -26.81,21.32 -26.21,21.24 -25.61,21.15 -25.01,21.26 -24.41,21.38 -23.88,21.67 -23.34,21.97 -22.93,22.42 -22.52,22.87 -22.28,23.43 -22.04,23.99 -21.98,24.60 -21.93,25.20 -22.08,25.80 -22.22,26.39 -22.54,26.90 -22.87,27.42 -23.34,27.80 -23.82,28.19 -24.39,28.40 -24.96,28.62 -25.57,28.64 -26.18,28.65 -26.76,28.48 -27.34,28.30 -27.84,27.95 -28.34,27.60 -28.70,27.10 -29.05,26.61 -29.24,26.03 -29.42,25.45 -29.40,24.84 -29.39,24.23 -29.18,23.66 -28.98,23.08 -28.60,22.61 -28.22,22.13 -27.71,21.80 -27.19,21.47 -26.60,21.32 -26.01,21.17 -26.01,21.17 -26.01,21.17 -27.46,21.25 -28.91,21.34 -28.90,20.21 -28.89,19.07 -28.89,17.84 -28.89,16.60 -29.00,15.50 -29.10,14.40 -29.28,13.12 -29.47,11.84 -29.78,10.48 -30.10,9.11 -30.47,7.81 -30.83,6.51 -31.24,5.49 -31.65,4.48 -31.70,2.88 -31.74,1.28 -31.03,0.46 -30.32,-0.35 -28.86,-0.94 -27.40,-1.54 -26.27,-1.52 -25.14,-1.51 -24.03,-1.50 -22.91,-1.48 -21.72,-1.54 -20.52,-1.60 -19.40,-1.65 -18.28,-1.70 -17.19,-1.75 -16.09,-1.79 -14.94,-1.84 -13.79,-1.88 -12.33,-1.94 -10.88,-1.99 -9.73,-2.01 -8.58,-2.03 -7.27,-2.09 -5.96,-2.15 -4.85,-2.22 -3.75,-2.30 -2.54,-2.41 -1.33,-2.52 -0.72,-2.50 -0.11,-2.49 0.18,-2.46 0.48,-2.44 0.76,-2.35 1.05,-2.25 1.30,-2.10 1.56,-1.94 1.77,-1.72 1.98,-1.51 2.13,-1.25 2.28,-0.99 2.37,-0.70 2.45,-0.41 2.47,-0.11 2.48,0.18 2.42,0.47 2.36,0.77 2.24,1.04 2.11,1.31 1.92,1.55 1.73,1.78 1.49,1.96 1.26,2.15 0.98,2.27 0.70,2.38 0.41,2.43 0.11,2.49 0.11,2.49 L 0.11,2.49 Z"></path></g><g transform="translate(86.2583528401542 21.459868313674633) rotate(0 7.063488872367316 7.324702665296627)" stroke="none"><path fill="#1e1e1e" d="M -0.12,-2.57 Q -0.12,-2.57 1.21,-2.64 2.54,-2.71 3.98,-2.83 5.43,-2.95 6.55,-3.04 7.68,-3.13 8.94,-3.22 10.21,-3.31 11.31,-3.38 12.41,-3.44 14.29,-2.97 16.16,-2.49 16.80,-1.36 17.43,-0.22 17.44,1.13 17.45,2.48 17.36,3.74 17.27,5.00 17.28,6.22 17.29,7.45 17.31,8.84 17.32,10.22 16.97,11.38 16.62,12.53 16.91,13.03 17.21,13.52 17.33,14.09 17.46,14.65 17.39,15.23 17.33,15.80 17.08,16.33 16.84,16.85 16.44,17.27 16.04,17.69 15.53,17.96 15.02,18.23 14.45,18.32 13.88,18.41 13.31,18.32 12.74,18.22 12.23,17.95 11.72,17.68 11.32,17.26 10.93,16.84 10.69,16.31 10.44,15.79 10.38,15.21 10.32,14.64 10.45,14.08 10.57,13.51 10.87,13.02 11.17,12.52 11.61,12.15 12.05,11.78 12.59,11.56 13.13,11.35 13.70,11.32 14.28,11.29 14.84,11.45 15.39,11.60 15.87,11.93 16.35,12.25 16.70,12.71 17.05,13.17 17.23,13.72 17.41,14.27 17.41,14.85 17.41,15.43 17.23,15.97 17.04,16.52 16.69,16.98 16.34,17.44 15.86,17.76 15.38,18.09 14.82,18.24 14.27,18.39 13.69,18.36 13.11,18.33 12.58,18.11 12.04,17.90 11.60,17.52 11.16,17.15 11.16,17.15 11.16,17.15 10.67,14.14 10.19,11.14 10.20,9.75 10.21,8.36 10.23,7.02 10.25,5.68 10.32,4.30 10.40,2.92 10.65,1.88 10.90,0.83 11.66,1.92 12.41,3.00 11.31,2.94 10.21,2.87 8.95,2.78 7.69,2.69 6.61,2.62 5.54,2.54 4.16,2.50 2.78,2.46 1.45,2.51 0.12,2.57 -0.18,2.55 -0.49,2.53 -0.79,2.43 -1.09,2.34 -1.35,2.17 -1.61,2.01 -1.83,1.78 -2.05,1.56 -2.21,1.29 -2.36,1.02 -2.45,0.73 -2.54,0.43 -2.56,0.12 -2.57,-0.18 -2.51,-0.49 -2.45,-0.80 -2.32,-1.08 -2.19,-1.36 -1.99,-1.60 -1.80,-1.84 -1.55,-2.03 -1.30,-2.22 -1.02,-2.35 -0.73,-2.47 -0.42,-2.52 -0.12,-2.57 -0.12,-2.57 L -0.12,-2.57 Z"></path></g><g transform="translate(19.68602091420962 91.78363360991261) rotate(0 9.401449755410567 6.417026070496377)" stroke="none"><path fill="#1e1e1e" d="M 2.59,0 Q 2.59,0 2.58,1.40 2.58,2.81 2.72,4.37 2.87,5.93 3.16,7.14 3.45,8.36 3.80,9.41 4.15,10.46 5.16,9.95 6.16,9.43 7.55,9.40 8.93,9.36 10.13,9.34 11.33,9.32 12.89,9.31 14.44,9.29 16.02,9.34 17.60,9.39 18.16,9.29 18.73,9.20 19.29,9.29 19.86,9.38 20.37,9.64 20.87,9.91 21.27,10.33 21.67,10.74 21.91,11.26 22.15,11.78 22.22,12.35 22.28,12.92 22.16,13.48 22.04,14.04 21.75,14.53 21.45,15.03 21.02,15.40 20.58,15.77 20.05,15.99 19.52,16.20 18.95,16.23 18.37,16.27 17.82,16.12 17.27,15.97 16.79,15.65 16.31,15.33 15.97,14.87 15.62,14.42 15.43,13.87 15.25,13.33 15.24,12.76 15.24,12.18 15.42,11.64 15.60,11.09 15.95,10.64 16.29,10.18 16.77,9.85 17.24,9.53 17.79,9.38 18.34,9.22 18.92,9.25 19.49,9.28 20.02,9.49 20.56,9.70 21.00,10.07 21.43,10.44 21.73,10.93 22.03,11.42 22.15,11.98 22.28,12.54 22.22,13.11 22.16,13.68 21.92,14.20 21.68,14.72 21.29,15.14 20.90,15.56 20.39,15.83 19.89,16.10 19.89,16.10 19.89,16.10 17.68,16.23 15.47,16.37 14.39,16.36 13.30,16.36 11.89,16.34 10.48,16.33 9.34,16.30 8.19,16.28 6.83,16.24 5.48,16.19 4.19,16.02 2.90,15.85 1.69,15.55 0.48,15.24 -0.39,14.40 -1.26,13.56 -1.63,12.38 -2.00,11.19 -2.19,9.93 -2.38,8.67 -2.48,7.47 -2.59,6.28 -2.58,4.54 -2.58,2.81 -2.58,1.40 -2.59,0 -2.55,-0.31 -2.52,-0.62 -2.41,-0.91 -2.30,-1.20 -2.12,-1.46 -1.94,-1.72 -1.70,-1.93 -1.47,-2.13 -1.19,-2.28 -0.92,-2.42 -0.61,-2.50 -0.31,-2.57 0.00,-2.57 0.31,-2.57 0.61,-2.50 0.92,-2.42 1.19,-2.28 1.47,-2.13 1.71,-1.93 1.94,-1.72 2.12,-1.46 2.30,-1.20 2.41,-0.91 2.52,-0.62 2.55,-0.31 2.59,0.00 2.59,0.00 L 2.59,0 Z"></path></g><g transform="translate(73.98604724582447 98.68318157653175) rotate(0 0.032626035681005305 6.1130887907324905)" stroke="none"><path fill="#1e1e1e" d="M 1.28,2.24 Q 1.28,2.24 0.51,2.73 -0.25,3.21 -1.05,4.08 -1.85,4.95 -2.23,6.03 -2.61,7.12 -2.94,8.18 -3.27,9.25 -3.72,10.34 -4.16,11.43 -4.88,10.63 -5.61,9.84 -6.41,9.09 -7.22,8.34 -6.05,8.24 -4.89,8.14 -3.63,8.05 -2.38,7.96 -1.13,7.94 0.11,7.93 1.49,7.96 2.87,7.98 4.05,8.15 5.23,8.31 6.57,8.45 7.92,8.58 8.50,8.68 9.08,8.78 9.60,9.05 10.12,9.33 10.52,9.76 10.92,10.19 11.17,10.73 11.41,11.27 11.47,11.85 11.53,12.44 11.40,13.01 11.27,13.59 10.97,14.09 10.66,14.60 10.21,14.97 9.76,15.35 9.21,15.57 8.66,15.78 8.07,15.81 7.48,15.84 6.91,15.68 6.35,15.52 5.86,15.18 5.38,14.85 5.02,14.38 4.67,13.91 4.48,13.35 4.30,12.79 4.30,12.20 4.30,11.61 4.50,11.05 4.69,10.49 5.05,10.03 5.41,9.56 5.90,9.23 6.39,8.91 6.96,8.75 7.52,8.60 8.11,8.63 8.70,8.67 9.25,8.89 9.79,9.11 10.24,9.49 10.69,9.88 10.99,10.39 11.29,10.89 11.41,11.47 11.54,12.05 11.47,12.63 11.40,13.22 11.15,13.75 10.90,14.28 10.49,14.71 10.08,15.13 9.56,15.41 9.04,15.68 8.46,15.77 7.87,15.86 7.87,15.86 7.87,15.86 6.02,15.69 4.16,15.51 2.96,15.32 1.75,15.13 0.55,15.12 -0.64,15.11 -2.04,15.09 -3.44,15.07 -4.54,15.15 -5.63,15.23 -6.71,15.19 -7.79,15.15 -8.91,14.34 -10.04,13.52 -10.08,11.03 -10.13,8.53 -9.60,7.43 -9.07,6.34 -8.54,5.04 -8.01,3.74 -7.39,2.73 -6.77,1.72 -5.86,0.82 -4.95,-0.08 -3.93,-0.74 -2.90,-1.40 -2.09,-1.82 -1.28,-2.24 -0.99,-2.36 -0.70,-2.48 -0.40,-2.53 -0.09,-2.58 0.21,-2.55 0.52,-2.53 0.82,-2.43 1.11,-2.33 1.38,-2.16 1.64,-1.99 1.85,-1.77 2.07,-1.54 2.22,-1.27 2.38,-1.00 2.46,-0.70 2.55,-0.40 2.56,-0.09 2.57,0.21 2.51,0.52 2.44,0.82 2.31,1.11 2.18,1.39 1.98,1.63 1.78,1.87 1.53,2.05 1.28,2.24 1.28,2.24 L 1.28,2.24 Z"></path></g><g transform="translate(135.6664262804079 90.49919809994935) rotate(0 -0.7710047379318894 5.374710088481152)" stroke="none"><path fill="#1e1e1e" d="M 1.21,-2.29 Q 1.21,-2.29 1.76,-2.04 2.31,-1.80 3.42,-0.98 4.53,-0.16 5.38,0.82 6.24,1.80 7.00,2.81 7.76,3.83 8.45,4.86 9.14,5.90 9.57,7.00 10.00,8.11 10.07,9.47 10.13,10.83 9.25,12.09 8.36,13.34 6.98,13.74 5.61,14.14 4.54,14.19 3.47,14.24 2.37,14.27 1.27,14.30 -0.08,14.31 -1.45,14.32 -2.67,14.32 -3.90,14.32 -7.55,13.21 -11.20,12.10 -11.47,11.59 -11.74,11.08 -11.83,10.50 -11.92,9.93 -11.83,9.36 -11.73,8.79 -11.46,8.28 -11.18,7.77 -10.76,7.37 -10.34,6.98 -9.81,6.73 -9.28,6.49 -8.71,6.43 -8.13,6.37 -7.57,6.50 -7.00,6.63 -6.51,6.93 -6.01,7.23 -5.64,7.67 -5.27,8.11 -5.05,8.65 -4.84,9.19 -4.81,9.77 -4.78,10.35 -4.94,10.91 -5.10,11.46 -5.43,11.94 -5.75,12.42 -6.22,12.77 -6.68,13.12 -7.23,13.30 -7.78,13.48 -8.36,13.48 -8.94,13.48 -9.48,13.29 -10.03,13.10 -10.49,12.75 -10.95,12.40 -11.27,11.92 -11.60,11.44 -11.75,10.88 -11.90,10.32 -11.87,9.74 -11.83,9.16 -11.62,8.62 -11.40,8.09 -11.02,7.65 -10.65,7.21 -10.15,6.91 -9.65,6.62 -9.09,6.49 -8.52,6.37 -7.94,6.44 -7.37,6.50 -6.84,6.75 -6.32,6.99 -5.90,7.39 -5.48,7.79 -5.48,7.79 -5.48,7.79 -5.25,7.48 -5.01,7.17 -3.85,7.17 -2.68,7.17 -1.07,7.17 0.53,7.18 1.60,7.20 2.68,7.22 3.76,7.39 4.85,7.56 4.22,8.51 3.59,9.46 3.12,8.45 2.66,7.44 1.96,6.27 1.26,5.09 0.53,4.01 -0.19,2.93 -0.70,2.61 -1.21,2.29 -1.47,2.11 -1.72,1.93 -1.93,1.70 -2.14,1.46 -2.28,1.18 -2.43,0.91 -2.50,0.60 -2.57,0.30 -2.57,-0.00 -2.57,-0.32 -2.49,-0.62 -2.42,-0.92 -2.27,-1.20 -2.13,-1.48 -1.92,-1.71 -1.71,-1.94 -1.45,-2.12 -1.19,-2.30 -0.90,-2.41 -0.61,-2.52 -0.30,-2.55 0.01,-2.59 0.32,-2.55 0.63,-2.51 0.92,-2.40 1.21,-2.29 1.21,-2.29 L 1.21,-2.29 Z"></path></g></svg>